<?xml version="1.0" standalone="yes"?>

<svg version="1.1" viewBox="0.0 0.0 529.1994750656168 110.44094488188976" fill="none" stroke="none" stroke-linecap="square" stroke-miterlimit="10" xmlns="http://www.w3.org/2000/svg" xmlns:xlink="http://www.w3.org/1999/xlink"><clipPath id="p.0"><path d="m0 0l529.19946 0l0 110.44095l-529.19946 0l0 -110.44095z" clip-rule="nonzero"></path></clipPath><g clip-path="url(#p.0)"><path fill="#000000" fill-opacity="0.0" d="m0 0l529.19946 0l0 110.44095l-529.19946 0z" fill-rule="nonzero"></path><path fill="#000000" fill-opacity="0.0" d="m0 0l549.6378 0l0 86.89764l-549.6378 0z" fill-rule="nonzero"></path><path fill="#ff3a3e" d="m25.640625 67.94812q0 2.421875 0.28125 3.9375q0.296875 1.5 1.25 2.296875q0.96875 0.796875 2.71875 1.125q1.765625 0.3125 4.640625 0.375l0 2.4375l-22.65625 0l0 -2.4375q2.25 -0.0625 3.625 -0.375q1.375 -0.328125 2.140625 -1.09375q0.765625 -0.765625 1.015625 -2.171875q0.265625 -1.40625 0.265625 -3.65625l0 -29.8125q0 -2.25 -0.234375 -3.625q-0.21875 -1.375 -0.890625 -2.171875q-0.671875 -0.796875 -1.953125 -1.078125q-1.28125 -0.296875 -3.328125 -0.421875l0 -2.4375l37.0 0l0.703125 12.21875l-2.25 0q-0.375 -2.75 -1.21875 -4.5q-0.828125 -1.765625 -2.328125 -2.78125q-1.5 -1.03125 -3.8125 -1.4375q-2.296875 -0.421875 -5.75 -0.421875l-8.125 0q-1.09375 0 -1.09375 1.078125l0 19.328125q3.078125 0 5.28125 -0.34375q2.203125 -0.359375 3.640625 -1.25q1.453125 -0.890625 2.21875 -2.421875q0.765625 -1.546875 0.953125 -3.984375l2.234375 0l0 18.75l-2.234375 0q-0.3125 -2.421875 -1.015625 -4.015625q-0.703125 -1.609375 -2.09375 -2.5q-1.375 -0.90625 -3.546875 -1.28125q-2.171875 -0.390625 -5.4375 -0.390625l0 13.0625zm48.583054 -8.765625q-3.65625 1.40625 -6.1875 2.75q-2.53125 1.34375 -4.0625 2.6875q-1.53125 1.34375 -2.203125 2.6875q-0.671875 1.34375 -0.671875 2.75q0 2.109375 1.40625 3.453125q1.40625 1.34375 3.71875 1.34375q1.65625 0 3.09375 -0.828125q1.4375 -0.828125 2.53125 -2.265625q1.09375 -1.453125 1.734375 -3.40625q0.640625 -1.953125 0.640625 -4.125l0 -5.046875zm0 -2.765625l0 -2.609375q0 -7.8125 -6.65625 -7.8125q-1.09375 0 -1.859375 0.1875q-0.765625 0.1875 -1.28125 0.640625q-0.515625 0.453125 -0.9375 1.28125q-0.40625 0.828125 -0.796875 2.046875q-0.703125 1.859375 -1.375 2.46875q-0.671875 0.609375 -1.953125 0.609375q-3.203125 0 -3.203125 -3.203125q0 -3.078125 3.265625 -4.765625q3.265625 -1.703125 9.28125 -1.703125q6.40625 0 9.09375 2.28125q2.6875 2.265625 2.6875 7.703125l0 14.34375q0 7.296875 2.875 7.296875q0.90625 0 1.734375 -0.21875q0.828125 -0.234375 1.40625 -1.203125l0.890625 1.546875q-0.765625 1.46875 -2.8125 2.46875q-2.046875 0.984375 -4.28125 0.984375q-2.828125 0 -4.203125 -1.78125q-1.375 -1.796875 -1.375 -5.0625l-0.3125 0q-1.671875 3.125 -4.625 4.953125q-2.9375 1.828125 -6.515625 1.828125q-4.03125 0 -6.34375 -2.046875q-2.296875 -2.046875 -2.296875 -5.5q0 -1.546875 0.546875 -2.953125q0.546875 -1.40625 1.75 -2.6875q1.21875 -1.28125 3.203125 -2.53125q1.984375 -1.25 4.875 -2.515625l9.21875 -4.046875zm27.705933 11.53125q0 2.484375 0.21875 4.0q0.234375 1.5 0.859375 2.375q0.640625 0.859375 1.796875 1.1875q1.15625 0.3125 3.078125 0.375l0 2.234375l-18.375 0l0 -2.234375q1.921875 -0.0625 3.140625 -0.421875q1.21875 -0.359375 1.890625 -1.15625q0.671875 -0.796875 0.890625 -2.234375q0.21875 -1.4375 0.21875 -3.6875l0 -8.1875q0 -3.703125 -0.09375 -6.109375q-0.09375 -2.40625 -0.34375 -3.296875q-0.328125 -1.46875 -1.484375 -2.015625q-1.140625 -0.546875 -4.34375 -0.546875l0 -2.234375l12.546875 -2.4375l0 24.390625zm-7.359375 -37.375q0 -1.671875 1.140625 -2.8125q1.15625 -1.15625 2.828125 -1.15625q1.65625 0 2.8125 1.15625q1.15625 1.140625 1.15625 2.8125q0 1.65625 -1.15625 2.8125q-1.15625 1.15625 -2.8125 1.15625q-1.671875 0 -2.828125 -1.15625q-1.140625 -1.15625 -1.140625 -2.8125zm28.79271 37.375q0 2.625 0.125 4.15625q0.140625 1.53125 0.671875 2.34375q0.546875 0.796875 1.5625 1.046875q1.03125 0.25 2.890625 0.390625l0 2.234375l-17.015625 0l0 -2.234375q1.84375 -0.0625 2.9375 -0.34375q1.09375 -0.296875 1.65625 -1.0625q0.578125 -0.78125 0.734375 -2.21875q0.171875 -1.4375 0.171875 -3.875l0 -7.484375q0 -4.34375 -0.09375 -6.78125q-0.09375 -2.4375 -0.640625 -3.578125q-0.546875 -1.15625 -1.703125 -1.375q-1.140625 -0.234375 -3.203125 -0.234375l0 -2.234375l11.203125 -2.4375l0.90625 7.9375l0.25 0q0.828125 -1.921875 2.078125 -3.515625q1.25 -1.609375 2.71875 -2.71875q1.46875 -1.125 3.0625 -1.765625q1.609375 -0.640625 3.28125 -0.640625q2.046875 0 3.21875 1.0q1.1875 0.984375 1.1875 2.65625q0 1.53125 -0.96875 2.40625q-0.953125 0.859375 -2.734375 0.859375q-1.03125 0 -1.734375 -0.25q-0.703125 -0.265625 -1.25 -0.546875q-0.546875 -0.296875 -1.03125 -0.546875q-0.46875 -0.265625 -1.046875 -0.265625q-1.71875 0 -3.453125 2.21875q-1.734375 2.203125 -2.6875 5.59375q-0.515625 1.859375 -0.8125 4.203125q-0.28125 2.328125 -0.28125 4.875l0 2.1875zm17.73108 -22.71875l7.234375 0l0 -4.609375q0 -7.359375 3.875 -11.484375q3.875 -4.140625 11.03125 -4.140625q3.96875 0 6.46875 1.21875q2.5 1.21875 2.5 3.140625q0 1.28125 -0.8125 2.140625q-0.796875 0.859375 -2.0 0.859375q-0.78125 0 -1.640625 -0.46875q-0.859375 -0.484375 -2.265625 -1.640625q-1.609375 -1.34375 -2.5 -1.75q-0.890625 -0.421875 -2.109375 -0.421875q-3.84375 0 -5.5 3.90625q-0.578125 1.28125 -0.8125 3.140625q-0.21875 1.84375 -0.21875 5.109375l0 5.0l10.296875 0l0 3.0l-10.296875 0l0 19.59375q0 2.359375 0.28125 3.90625q0.296875 1.53125 1.03125 2.453125q0.734375 0.921875 2.015625 1.28125q1.28125 0.359375 3.328125 0.421875l0 2.234375l-18.171875 0l0 -2.234375q1.78125 -0.0625 2.875 -0.34375q1.09375 -0.296875 1.65625 -1.09375q0.578125 -0.8125 0.765625 -2.25q0.203125 -1.4375 0.203125 -3.875l0 -20.09375l-7.234375 0l0 -3.0zm39.55545 22.71875q0 2.484375 0.21875 4.0q0.234375 1.5 0.859375 2.375q0.640625 0.859375 1.796875 1.1875q1.15625 0.3125 3.078125 0.375l0 2.234375l-18.375 0l0 -2.234375q1.921875 -0.0625 3.140625 -0.421875q1.21875 -0.359375 1.890625 -1.15625q0.671875 -0.796875 0.890625 -2.234375q0.21875 -1.4375 0.21875 -3.6875l0 -8.1875q0 -3.703125 -0.09375 -6.109375q-0.09375 -2.40625 -0.34375 -3.296875q-0.328125 -1.46875 -1.484375 -2.015625q-1.140625 -0.546875 -4.34375 -0.546875l0 -2.234375l12.546875 -2.4375l0 24.390625zm-7.359375 -37.375q0 -1.671875 1.140625 -2.8125q1.15625 -1.15625 2.828125 -1.15625q1.65625 0 2.8125 1.15625q1.15625 1.140625 1.15625 2.8125q0 1.65625 -1.15625 2.8125q-1.15625 1.15625 -2.8125 1.15625q-1.671875 0 -2.828125 -1.15625q-1.140625 -1.15625 -1.140625 -2.8125zm47.995834 41.59375q-5.4375 6.59375 -13.5 6.59375q-3.78125 0 -6.859375 -1.25q-3.0625 -1.25 -5.28125 -3.515625q-2.203125 -2.28125 -3.421875 -5.4375q-1.203125 -3.171875 -1.203125 -7.015625q0 -3.90625 1.28125 -7.234375q1.28125 -3.328125 3.609375 -5.6875q2.34375 -2.375 5.5625 -3.71875q3.234375 -1.34375 7.078125 -1.34375q6.203125 0 9.59375 3.359375q3.390625 3.359375 3.390625 9.640625q0 0.890625 -0.359375 1.09375q-0.34375 0.1875 -1.609375 0.1875l-21.0625 0q-0.125 0.5 -0.1875 1.25q-0.0625 0.734375 -0.0625 1.625q0 3.328125 0.796875 6.046875q0.796875 2.71875 2.296875 4.640625q1.5 1.921875 3.578125 2.984375q2.09375 1.046875 4.65625 1.046875q2.6875 0 4.984375 -1.1875q2.296875 -1.1875 4.734375 -3.875l1.984375 1.796875zm-10.5625 -17.28125q1.28125 0 2.046875 -0.0625q0.765625 -0.0625 1.15625 -0.25q0.390625 -0.203125 0.515625 -0.546875q0.125 -0.359375 0.125 -0.9375q0 -2.9375 -1.890625 -4.6875q-1.890625 -1.765625 -5.15625 -1.765625q-6.90625 0 -8.5625 8.25l11.765625 0zm27.203186 13.25q0 2.4375 0.1875 3.90625q0.203125 1.46875 0.796875 2.3125q0.609375 0.828125 1.734375 1.15625q1.125 0.3125 2.984375 0.375l0 2.234375l-17.671875 0l0 -2.234375q1.921875 -0.0625 3.0625 -0.421875q1.15625 -0.359375 1.828125 -1.125q0.671875 -0.765625 0.890625 -2.140625q0.234375 -1.375 0.234375 -3.609375l0 -27.59375q0 -3.453125 -0.09375 -5.78125q-0.09375 -2.34375 -0.28125 -3.171875q-0.328125 -1.46875 -1.515625 -1.984375q-1.171875 -0.515625 -4.25 -0.515625l0 -2.171875l12.09375 -2.375l0 43.140625zm38.393692 4.609375l-0.25 0q-2.296875 3.265625 -4.890625 4.640625q-2.59375 1.375 -6.109375 1.375q-3.65625 0 -6.703125 -1.3125q-3.0312347 -1.3125 -5.2499847 -3.640625q-2.203125 -2.34375 -3.453125 -5.609375q-1.234375 -3.265625 -1.234375 -7.109375q0 -3.765625 1.234375 -7.0q1.25 -3.234375 3.453125 -5.5625q2.21875 -2.34375 5.2812347 -3.65625q3.078125 -1.3125 6.671875 -1.3125q3.0625 0 5.453125 1.03125q2.40625 1.015625 4.65625 3.265625l0 -6.53125q0 -3.65625 -0.109375 -6.078125q-0.09375 -2.4375 -0.28125 -3.328125q-0.3125 -1.40625 -1.796875 -1.984375q-1.46875 -0.578125 -4.796875 -0.578125l0 -1.921875l13.125 -2.4375l0 36.9375q0 4.40625 0.0625 7.265625q0.0625 2.84375 0.390625 4.0625q0.1875 0.765625 0.46875 1.28125q0.296875 0.5 0.828125 0.796875q0.546875 0.28125 1.46875 0.421875q0.9375 0.125 2.40625 0.125l0 2.171875l-10.625 0.703125l0 -6.015625zm-1.265625 -14.140625q0 -3.328125 -0.359375 -5.046875q-0.359375 -1.734375 -1.375 -3.015625q-1.46875 -1.921875 -3.75 -2.90625q-2.265625 -1.0 -4.5 -1.0q-4.609375 0 -7.015625 3.8125q-2.4062347 3.796875 -2.4062347 10.328125q0 3.390625 0.60935974 6.140625q0.609375 2.75 1.796875 4.703125q1.1875 1.953125 2.9375 3.015625q1.765625 1.046875 4.078125 1.046875q1.140625 0 2.328125 -0.25q1.1875 -0.25 2.296875 -0.796875q1.125 -0.546875 2.078125 -1.28125q0.96875 -0.734375 1.609375 -1.703125q0.890625 -1.40625 1.28125 -3.390625q0.390625 -1.984375 0.390625 -5.4375l0 -4.21875z" fill-rule="nonzero"></path><path fill="#cccccc" d="m308.4734 61.35437l8.34375 -0.984375q1.40625 9.875 9.203125 9.875q3.875 0 6.078125 -2.015625q2.21875 -2.03125 2.21875 -5.015625q0 -1.765625 -0.78125 -2.984375q-0.765625 -1.234375 -2.34375 -2.015625q-1.578125 -0.796875 -7.671875 -2.671875q-5.4375 -1.640625 -7.96875 -3.578125q-2.53125 -1.9375 -4.03125 -5.078125q-1.5 -3.15625 -1.5 -6.765625q0 -4.21875 1.921875 -7.59375q1.921875 -3.375 5.296875 -5.09375q3.375 -1.734375 8.328125 -1.734375q7.453125 0 11.625 4.046875q4.1875 4.046875 4.4375 11.5625l-8.546875 0.453125q-0.5625 -4.140625 -2.421875 -5.796875q-1.859375 -1.65625 -5.3125 -1.65625q-3.4375 0 -5.3125 1.453125q-1.859375 1.4375 -1.859375 3.578125q0 2.109375 1.6875 3.546875q1.6875 1.453125 7.78125 3.171875q6.421875 1.859375 9.28125 3.921875q2.875 2.046875 4.390625 5.3125q1.515625 3.25 1.515625 7.890625q0 6.703125 -4.140625 11.28125q-4.125 4.578125 -12.921875 4.578125q-15.53125 0 -17.296875 -17.6875zm55.484375 -20.578125l0 7.875l-5.515625 0l0 15.046875q0 4.890625 0.234375 5.671875q0.5 1.40625 2.015625 1.40625q1.125 0 3.234375 -0.953125l0.703125 7.65625q-2.8125 1.484375 -6.375 1.484375q-3.09375 0 -4.953125 -1.46875q-1.859375 -1.484375 -2.5 -4.265625q-0.484375 -2.03125 -0.484375 -8.296875l0 -16.28125l-3.734375 0l0 -7.875l3.734375 0l0 -7.40625l8.125 -5.765625l0 13.171875l5.515625 0zm11.699219 11.390625l-7.34375 -1.609375q1.34375 -5.65625 4.40625 -8.140625q3.078125 -2.484375 8.84375 -2.484375q5.140625 0 7.84375 1.453125q2.703125 1.4375 3.859375 3.921875q1.171875 2.46875 1.171875 9.015625l-0.078125 11.53125q0 4.84375 0.390625 7.21875q0.390625 2.375 1.4375 5.046875l-8.015625 0l-1.046875 -4.078125q-2.078125 2.453125 -4.453125 3.6875q-2.375 1.234375 -5.046875 1.234375q-4.453125 0 -7.3125 -3.0q-2.84375 -3.015625 -2.84375 -8.0q0 -3.171875 1.15625 -5.515625q1.171875 -2.359375 3.28125 -3.765625q2.109375 -1.40625 6.75 -2.5q5.625 -1.296875 7.828125 -2.421875q0 -3.09375 -0.4375 -4.0625q-0.4375 -0.96875 -1.625 -1.578125q-1.171875 -0.625 -3.3125 -0.625q-2.171875 0 -3.421875 0.984375q-1.25 0.984375 -2.03125 3.6875zm10.828125 8.015625q-1.546875 0.640625 -4.8125 1.484375q-3.765625 0.984375 -4.921875 2.171875q-1.15625 1.203125 -1.15625 3.09375q0 2.15625 1.28125 3.609375q1.28125 1.453125 3.21875 1.453125q1.71875 0 3.40625 -1.171875q1.6875 -1.171875 2.328125 -2.78125q0.65625 -1.625 0.65625 -5.890625l0 -1.96875zm15.1953125 20.40625l9.28125 1.359375q0.203125 2.046875 1.28125 2.90625q1.078125 0.859375 3.390625 0.859375q2.671875 0 4.328125 -0.875q1.15625 -0.640625 1.78125 -2.125q0.640625 -1.46875 0.640625 -5.1875l0 -5.453125q-1.828125 3.015625 -4.109375 4.53125q-2.28125 1.515625 -5.0625 1.515625q-5.09375 0 -8.578125 -4.609375q-4.015625 -5.265625 -4.015625 -14.265625q0 -9.5625 3.78125 -14.4375q3.78125 -4.875 9.15625 -4.875q2.859375 0 5.1875 1.515625q2.34375 1.515625 4.171875 4.578125l0 -5.25l7.59375 0l0 33.515625q0 8.046875 -1.484375 11.671875q-1.46875 3.625 -4.546875 5.46875q-3.078125 1.84375 -8.53125 1.84375q-5.015625 0 -8.046875 -1.34375q-3.015625 -1.328125 -4.625 -3.984375q-1.59375 -2.65625 -1.59375 -6.140625l0 -1.21875zm7.234375 -21.90625q0 5.96875 1.921875 8.71875q1.921875 2.734375 4.625 2.734375q2.921875 0 4.984375 -2.765625q2.078125 -2.78125 2.078125 -8.453125q0 -5.828125 -1.984375 -8.625q-1.984375 -2.796875 -4.90625 -2.796875q-2.875 0 -4.796875 2.75q-1.921875 2.734375 -1.921875 8.4375zm29.570312 -32.109375l8.515625 0l0 27.921875q0 6.5 0.3125 8.46875q0.5625 3.40625 2.6875 5.28125q2.125 1.859375 5.609375 1.859375q2.953125 0 4.8125 -1.3125q1.859375 -1.328125 2.546875 -3.65625q0.6875 -2.34375 0.6875 -10.046875l0 -28.515625l8.546875 0l0 27.078125q0 10.375 -1.109375 15.0q-1.109375 4.609375 -5.0 7.484375q-3.875 2.859375 -10.234375 2.859375q-6.609375 0 -10.328125 -2.375q-3.703125 -2.375 -5.375 -6.671875q-1.671875 -4.3125 -1.671875 -15.875l0 -27.5zm42.40625 14.203125l7.546875 0l0 5.484375q1.546875 -2.953125 4.078125 -4.640625q2.53125 -1.6875 5.453125 -1.6875q5.234375 0 9.015625 5.0q3.78125 4.984375 3.78125 14.171875q0 9.625 -3.796875 14.75q-3.796875 5.109375 -9.03125 5.109375q-2.421875 0 -4.515625 -1.171875q-2.09375 -1.1875 -4.421875 -4.28125l0 18.8125l-8.109375 0l0 -51.546875zm8.015625 18.046875q0 6.328125 2.046875 9.3125q2.0625 2.984375 4.984375 2.984375q2.765625 0 4.65625 -2.75q1.90625 -2.765625 1.90625 -9.03125q0 -5.9375 -1.953125 -8.765625q-1.9375 -2.828125 -4.75 -2.828125q-2.953125 0 -4.921875 2.765625q-1.96875 2.75 -1.96875 8.3125z" fill-rule="nonzero"></path></g></svg>

